#!OML:ASF Y:\EmotionMaleHayes\Project 1\Capture day 1\Session 1\Male1.ASF
:FULLY-SPECIFIED
:DEGREES
665
root 41.0901 15.2141 -4.57279 -177.67 -4.86386 -201.363
lowerback 28.1209 3.1289 -5.40102
upperback 10.8448 0.083486 1.57775
thorax -3.43634 -1.21316 4.88249
lowerneck -10.4695 -16.0159 -14.5637
upperneck 8.14221 -21.7441 15.5476
head 7.5159 -10.0343 4.62757
rclavicle 6.20208e-014 1.08139e-013
rhumerus 8.58932 17.5726 -89.2391
rradius 69.285
rwrist -12.3359
rhand -34.8252 -19.2705
rfingers 7.12502
rthumb -7.97603 -49.1
lclavicle 6.20208e-014 1.08139e-013
lhumerus 20.4922 5.91583 26.64
lradius 35.353
lwrist 24.8506
lhand -35.9875 -24.4313
lfingers 7.12502
lthumb -9.09773 5.3525
rfemur -36.2229 -8.51941 15.4186
rtibia 59.9478
rfoot -26.8173 -18.9481
rtoes 43.1612
lfemur -34.045 1.1578 10.8657
ltibia 76.814
lfoot 176.229 0.755653
ltoes -20.3803
666
root 41.2172 15.2872 -4.6185 -177.921 -3.23353 -201.321
lowerback 27.7356 3.45672 -4.22587
upperback 11.0455 0.768881 0.653813
thorax -3.09288 -0.844432 2.969
lowerneck -10.195 -16.6922 -12.049
upperneck 6.91913 -22.9084 15.6545
head 6.9746 -10.5711 4.18484
rclavicle -2.06736e-014 -1.59028e-014
rhumerus 10.2397 18.4315 -90.4145
rradius 69.419
rwrist -11.2593
rhand -33.0469 -18.5309
rfingers 7.12502
rthumb -6.2595 -48.4184
lclavicle -2.06736e-014 -1.59028e-014
lhumerus 24.4349 3.51045 29.3843
lradius 32.3499
lwrist 21.289
lhand -31.8192 -20.9686
lfingers 7.12502
lthumb -5.07419 8.95061
rfemur -35.1468 -7.0016 16.0906
rtibia 58.2056
rfoot -26.4891 -18.5798
rtoes 44.4787
lfemur -35.5768 -0.0589185 8.17839
ltibia 76.0894
lfoot 175.886 2.34633
ltoes -21.4335
667
root 41.3486 15.3764 -4.66265 -178.105 -1.50049 -201.138
lowerback 27.8699 3.32569 -4.15035
upperback 10.6772 0.63737 0.352125
thorax -3.5536 -0.864726 2.64028
lowerneck -9.85606 -16.4212 -11.2705
upperneck 6.82739 -22.5889 15.1591
head 6.69272 -10.4576 4.03109
rclavicle -3.65764e-014 -7.31528e-014
rhumerus 11.1428 22.1569 -91.0523
rradius 69.6579
rwrist -10.4027
rhand -31.6093 -17.4672
rfingers 7.12502
rthumb -4.87148 -47.3912
lclavicle -3.65764e-014 -7.31528e-014
lhumerus 24.8912 1.71773 32.069
lradius 29.4827
lwrist 16.8959
lhand -28.6863 -23.3513
lfingers 7.12502
lthumb -2.04872 6.61858
rfemur -33.7841 -5.13651 16.9768
rtibia 55.9911
rfoot -26.0731 -18.5566
rtoes 45.3112
lfemur -37.0858 -1.31648 5.58518
ltibia 75.8213
lfoot 175.463 3.56379
ltoes -21.2071
668
root 41.4869 15.4807 -4.71121 -178.176 0.367439 -200.969
lowerback 27.6346 0.120896 -5.89914
upperback 10.5215 1.41829 -0.365259
thorax -3.49774 1.72071 2.49266
lowerneck -9.47604 -16.3679 -11.8861
upperneck 6.26173 -22.5718 16.2694
head 6.66769 -10.4481 4.47655
rclavicle 4.45278e-014 8.90555e-014
rhumerus 12.5994 26.0335 -91.242
rradius 69.9641
rwrist -9.37167
rhand -30.2739 -16.6553
rfingers 7.12502
rthumb -3.58193 -46.6049
lclavicle 4.45278e-014 8.90555e-014
lhumerus 25.4096 0.440651 34.9251
lradius 26.3189
lwrist 11.3335
lhand -26.5627 -25.6604
lfingers 7.12502
lthumb 0.00228715 4.31939
rfemur -32.2467 -3.26204 17.8849
rtibia 53.3414
rfoot -25.2038 -18.6743
rtoes 45.4723
lfemur -38.4436 -2.70109 2.83886
ltibia 76.0852
lfoot 174.837 4.15751
ltoes -21.8756
669
root 41.6227 15.5958 -4.76474 -178.258 2.47403 -200.719
lowerback 27.341 0.0888612 -6.02852
upperback 10.524 1.27564 -0.553503
thorax -3.34189 1.61705 2.41133
lowerneck -10.0173 -16.2936 -11.816
upperneck 6.26348 -22.429 16.3564
head 6.74291 -10.3459 4.47585
rclavicle -3.49861e-014 -4.6118e-014
rhumerus 14.5505 30.7209 -90.2072
rradius 70.476
rwrist -9.01183
rhand -28.9174 -16.2079
rfingers 7.12502
rthumb -2.27191 -46.1755
lclavicle -3.49861e-014 -4.6118e-014
lhumerus 25.4358 1.38297 39.1911
lradius 23.2929
lwrist 2.79055
lhand -25.7755 -30.2178
lfingers 7.12502
lthumb 0.762549 -0.239371
rfemur -30.7143 -1.94673 18.8414
rtibia 50.5589
rfoot -24.0528 -18.1061
rtoes 45.8351
lfemur -39.5892 -3.88333 0.188722
ltibia 76.8027
lfoot 174.087 4.29857
ltoes -24.0583
670
root 41.7513 15.7227 -4.82092 -178.387 4.88791 -200.287
lowerback 27.1716 0.104425 -5.86182
upperback 10.4892 1.24605 -0.829019
thorax -3.29886 1.57736 2.02781
lowerneck -10.4708 -16.2045 -11.6142
upperneck 6.2245 -22.2946 16.4581
head 6.77934 -10.2526 4.47003
rclavicle -3.02153e-014 -9.06458e-014
rhumerus 16.5727 35.1267 -88.9671
rradius 71.1837
rwrist -8.56173
rhand -27.9673 -16.2432
rfingers 7.12502
rthumb -1.35432 -46.2186
lclavicle -3.02153e-014 -9.06458e-014
lhumerus 24.8378 2.96776 43.7335
lradius 21.708
lwrist -7.25965
lhand -25.9355 -32.8448
lfingers 7.12502
lthumb 0.608075 -2.86596
rfemur -28.9652 -0.722596 19.9726
rtibia 47.5706
rfoot -23.0171 -17.0955
rtoes 46.0691
lfemur -40.6541 -4.54541 -2.12702
ltibia 77.8685
lfoot 173.418 4.22656
ltoes -25.7116
671
root 41.8815 15.864 -4.87803 -178.428 7.50412 -199.791
lowerback 27.0503 0.189357 -5.54626
upperback 10.3829 1.31353 -1.20434
thorax -3.36488 1.58732 1.41968
lowerneck -10.9628 -16.0906 -11.1638
upperneck 6.30776 -22.1696 16.4351
head 6.8182 -10.1601 4.38928
rclavicle 4.77083e-015 1.11319e-014
rhumerus 18.6431 39.2527 -87.3688
rradius 72.0647
rwrist -8.03709
rhand -27.4279 -16.0108
rfingers 7.12502
rthumb -0.833398 -45.9889
lclavicle 4.77083e-015 1.11319e-014
lhumerus 24.0342 3.82816 47.5173
lradius 20.3271
lwrist -16.6286
lhand -26.3076 -33.6065
lfingers 7.12502
lthumb 0.248611 -3.62686
rfemur -26.9646 0.597783 21.1469
rtibia 44.2181
rfoot -21.9818 -15.8818
rtoes 45.9946
lfemur -41.6528 -5.04712 -4.27714
ltibia 79.3817
lfoot 172.706 3.63795
ltoes -26.9693
672
root 42.0124 16.0167 -4.93796 -178.324 10.3159 -199.179
lowerback 26.9237 0.336159 -5.29295
upperback 10.2228 1.42834 -1.49471
thorax -3.48985 1.61 0.925853
lowerneck -11.2306 -16.1045 -10.9658
upperneck 6.39189 -21.9265 16.4323
head 6.84205 -10.0706 4.37358
rclavicle 9.54166e-015 -4.77083e-015
rhumerus 20.8453 43.3022 -85.2163
rradius 73.0806
rwrist -7.37255
rhand -28.7691 -15.7571
rfingers 7.12502
rthumb -2.12871 -45.7263
lclavicle 9.54166e-015 -4.77083e-015
lhumerus 22.6883 3.70622 50.6628
lradius 19.8127
lwrist -23.8693
lhand -28.4133 -33.773
lfingers 7.12502
lthumb -1.78508 -3.80076
rfemur -24.8902 1.55791 22.4089
rtibia 40.61
rfoot -21.5768 -13.8788
rtoes 48.6062
lfemur -42.6245 -5.41102 -6.17571
ltibia 82.1646
lfoot 175.028 28.77
ltoes -29.0333
673
root 42.1455 16.1763 -4.99975 -178.087 13.385 -198.424
lowerback 26.8181 0.584973 -5.16312
upperback 10.0017 1.62597 -1.66919
thorax -3.69657 1.66074 0.602894
lowerneck -11.363 -15.9271 -11.0699
upperneck 6.30778 -21.6945 16.7849
head 6.86529 -9.93095 4.52489
rclavicle -4.45278e-014 -4.29375e-014
rhumerus 23.1301 47.1431 -82.5657
rradius 74.2914
rwrist -6.47493
rhand -29.5019 -15.0119
rfingers 7.12502
rthumb -2.83638 -44.9728
lclavicle -4.45278e-014 -4.29375e-014
lhumerus 21.1548 3.89164 53.8586
lradius 19.4324
lwrist -29.6381
lhand -29.7068 -34.2707
lfingers 7.12502
lthumb -3.03432 -4.31252
rfemur -22.7511 2.07237 23.8495
rtibia 36.8142
rfoot -19.2859 -12.0211
rtoes 46.3402
lfemur -43.5653 -5.43782 -7.68256
ltibia 86.1235
lfoot 177.768 53.9235
ltoes -31.347
674
root 42.2847 16.3397 -5.06833 -177.701 16.6642 -197.67
lowerback 26.6464 0.920203 -5.17207
upperback 9.72674 1.88907 -1.89849
thorax -3.93009 1.73818 0.280579
lowerneck -11.4356 -15.8085 -10.8906
upperneck 6.13254 -21.5696 17.1012
head 6.82814 -9.84513 4.61735
rclavicle 2.38542e-014 -3.65764e-014
rhumerus 25.4909 50.578 -79.611
rradius 75.5108
rwrist -5.51304
rhand -29.1593 -14.6902
rfingers 7.12502
rthumb -2.50551 -44.6552
lclavicle 2.38542e-014 -3.65764e-014
lhumerus 19.464 2.94295 56.3557
lradius 19.0486
lwrist -31.6566
lhand -31.22 -34.8158
lfingers 7.12502
lthumb -4.49555 -4.88351
rfemur -20.5544 2.10739 25.2244
rtibia 32.8768
rfoot -17.2792 -9.09486
rtoes 46.8596
lfemur -44.3334 -5.39734 -8.94714
ltibia 89.5114
lfoot 196.161 78.1447
ltoes -32.6067
